# xmcd
#
# Track frame offsets:
#	150
#	18060
#	29395
#	43082
#	60462
#	74565
#	89402
#	106235
#	118440
#	133660
#	148565
#	162902
#	179472
#	191487
#	203957
#	215707
#	229550
#	245890
#	258925
#
# Disc length: 3664 seconds
# Revision: 0
# Processed by: cddbd v1.5.2PL0 Copyright (c) Steve Scherf et al.
# Submitted via: dBpowerAMP V12.0
#
DISCID=1d0e4e13
DTITLE=Various Artist - 19 Hot Country Requests  Volume III
DYEAR=1986
DGENRE=Country
TTITLE0=Ricky Skaggs - Country Boy
TTITLE1=George Jones - The One I Loved Back Then
TTITLE2=Waylon Jennins and Willie Nelson and Johnny Cash and Kris Kristofferson - Highwayman
TTITLE3=Ray Charles and Willie Nelson - Seven Spanish Angels
TTITLE4=Merle Haggard - Natural High
TTITLE5=Rosanne Cash - I Don't Know Why You Don't Want Me
TTITLE6=Ricky Skaggs - Cajun Moon
TTITLE7=Exile - I Could Get Used To You
TTITLE8=Mickey Gilley - Your Memory Ain't What It Used To Be
TTITLE9=Charly McClain and Wayne Massey - With Just One Look In Your Eyes
TTITLE10=Charly McClain - Radio Heart
TTITLE11=Mark Gray and Tammy Wynette - Sometimes When We Touch
TTITLE12=Gene Watson - Memories To Burn
TTITLE13=Janie Frickiet - She's Single Again
TTITLE14=Ronnie McDowell - In A New York Minute
TTITLE15=Merle Haggard - I Had A Beautiful Time
TTITLE16=Exile - She's A Miracle
TTITLE17=Moe Bandy and Joe Stampley - Where's The Dress
TTITLE18=Rockin Sidney - My Toot Toot
EXTD=
EXTT0=
EXTT1=
EXTT2=
EXTT3=
EXTT4=
EXTT5=
EXTT6=
EXTT7=
EXTT8=
EXTT9=
EXTT10=
EXTT11=
EXTT12=
EXTT13=
EXTT14=
EXTT15=
EXTT16=
EXTT17=
EXTT18=
PLAYORDER=
